# xmcd
#
# Track frame offsets: 
#        150
#        7791
#        10549
#        21980
#        30548
#        40711
#        46207
#        48951
#        50323
#        78249
#        83626
#        88669
#        99431
#        119325
#        130651
#        157407
#        173143
#        198116
#        210069
#
# Disc length: 3085 seconds
#
# Revision: 0
# Processed by: cddbd v1.5.2PL0 Copyright (c) Steve Scherf et al.
# Submitted via: ExactAudioCopy v0.95b3
#
DISCID=d20c0b13
DTITLE=Keith Emerson Band  - Keith Emerson Band feat.Marc Bonilla
DYEAR=1900
DGENRE=
TTITLE0=Ignition
TTITLE1=1st Presence
TTITLE2=Last Horizon
TTITLE3=Miles Away Pt.1
TTITLE4=Miles Away Pt.2
TTITLE5=Crusaders Cross
TTITLE6=Fugue
TTITLE7=2nd Presence
TTITLE8=Marche Train
TTITLE9=Blue Inferno
TTITLE10=3rd Presence
TTITLE11=Prelude To A Hope
TTITLE12=A Place To Hide
TTITLE13=Miles Away Pt.3
TTITLE14=Finale
TTITLE15=The Art Of Falling Down
TTITLE16=Malambo (from 'Estancia Suite')
TTITLE17=Gametime
TTITLE18=The Parting
EXTD=
EXTT0=
EXTT1=
EXTT2=
EXTT3=
EXTT4=
EXTT5=
EXTT6=
EXTT7=
EXTT8=
EXTT9=
EXTT10=
EXTT11=
EXTT12=
EXTT13=
EXTT14=
EXTT15=
EXTT16=
EXTT17=
EXTT18=
PLAYORDER=
